<?xml version="1.0" encoding="UTF-8"?>
<svg xmlns="http://www.w3.org/2000/svg" data-name="Layer 3" id="Layer_3" viewBox="0 0 32 32"><defs><style>.cls-1,.cls-2{fill:none;stroke:#0832ff;stroke-linecap:round;stroke-linejoin:round;}.cls-1{stroke-width:2px;}.cls-3{fill:#0832ff;}</style></defs><title/><line class="cls-1" x1="14" x2="25" y1="9" y2="9" style="fill: none; stroke: #0832ff; stroke-linecap: round; stroke-linejoin: round; stroke-width: 2px;"/><path class="cls-2" d="M10,8.94A2.08,2.08,0,0,1,8,11,2.08,2.08,0,0,1,6,8.94a2,2,0,0,1,4,0Z" style="fill: none; stroke: #0832ff; stroke-linecap: round; stroke-linejoin: round;"/><path class="cls-3" d="M10,8.94A2.08,2.08,0,0,1,8,11,2.08,2.08,0,0,1,6,8.94a2,2,0,0,1,4,0Z" style="fill: #0832ff;"/><line class="cls-1" x1="14" x2="25" y1="16" y2="16" style="fill: none; stroke: #0832ff; stroke-linecap: round; stroke-linejoin: round; stroke-width: 2px;"/><path class="cls-2" d="M10,15.94A2.08,2.08,0,0,1,8,18a2.08,2.08,0,0,1-2-2.06,2,2,0,0,1,4,0Z" style="fill: none; stroke: #0832ff; stroke-linecap: round; stroke-linejoin: round;"/><line class="cls-1" x1="14" x2="25" y1="23" y2="23" style="fill: none; stroke: #0832ff; stroke-linecap: round; stroke-linejoin: round; stroke-width: 2px;"/><path class="cls-2" d="M10,22.94A2.08,2.08,0,0,1,8,25a2.08,2.08,0,0,1-2-2.06,2,2,0,0,1,4,0Z" style="fill: none; stroke: #0832ff; stroke-linecap: round; stroke-linejoin: round;"/>
	<metadata>
		<rdf:RDF xmlns:rdf="http://www.w3.org/1999/02/22-rdf-syntax-ns#" xmlns:rdfs="http://www.w3.org/2000/01/rdf-schema#" xmlns:dc="http://purl.org/dc/elements/1.1/">
			<rdf:Description about="https://iconscout.com/legal#licenses" dc:title="2303204,check,checklist,done,list,menu,options,todo" dc:description="2303204,check,checklist,done,list,menu,options,todo" dc:publisher="Iconscout" dc:date="2017-07-08" dc:format="image/svg+xml" dc:language="en">
				<dc:creator>
					<rdf:Bag>
						<rdf:li>Laura Reen</rdf:li>
					</rdf:Bag>
				</dc:creator>
			</rdf:Description>
		</rdf:RDF>
    </metadata></svg>
